<svg id="Calque_1" data-name="Calque 1" xmlns="http://www.w3.org/2000/svg" viewBox="0 0 87.67 89.68"><defs><style>.cls-1{fill:#1d1d1b;}</style></defs><path class="cls-1" d="M1052.12,581.56c-9.65.27-17.9,4.49-26,9.2-15,8.79-30.58,9.17-46.41,2.58-6.8-2.83-12.3-7.27-15.12-15.08,7.8,1.14,15.09,2.47,22.49,2.86,1.74.09,3.47.29,5.2.34,7.38.21,7.54.19,7.59-7.08.06-9.56,1-19.07,1.69-28.59.18-2.47-.22-3.36-2.91-2.71-3.25.8-6.61,1.07-9.88,1.79-2.36.52-3.26-.23-2.95-2.58,0-.12,0-.25,0-.37-.19-5.26-.19-5.25,5.15-5.84,1.36-.15,2.7-.41,4-.59,6.87-.89,6.79-.89,7.15-7.9.28-5.45,1-10.88,1.15-16.33.06-2.72,1.57-3.09,3.45-3.07,2.37,0,1.17,2,1.19,3,.11,6.08.31,12.17,0,18.24-.21,3.76,1.12,4,4.2,3.22,4-1,8-1.55,12.07-2.16,1.09-.16,3.11-1.49,3.14.68,0,2,1.63,4.95-1.94,5.87-4.68,1.22-9.33,2.53-14,3.57-2.38.52-3.4,1.34-3.39,4.08.06,10.91-.23,21.82-.39,32.73,0,2.55.77,3.79,3.72,3.38,9.86-1.35,19.09-4.19,27.11-10.31,1.74-1.33,3.42-2.91,6.72-2.06-21.49,19.36-46.32,19.36-73.1,14.48,9.56,7.22,19.36,10.25,30.25,10,9-.18,17.25-3,25.13-7.18,7.72-4.1,15.8-6.5,24.66-4.79.18.12.25.24.2.37S1052.18,581.56,1052.12,581.56Z" transform="translate(-964.62 -508.19)"/></svg>